<?xml version="1.0" encoding="utf-8"?>
<!-- Generator: Adobe Illustrator 22.1.0, SVG Export Plug-In . SVG Version: 6.00 Build 0)  -->
<svg version="1.1" xmlns="http://www.w3.org/2000/svg" xmlns:xlink="http://www.w3.org/1999/xlink" x="0px" y="0px"
	 viewBox="0 0 1366 768" enable-background="new 0 0 1366 768" xml:space="preserve">
<g id="Layer_5" display="none">
	<rect display="inline" fill="#242426" width="1366" height="768"/>
</g>
<g id="Drone">
	<g id="Layer_1">
		<rect x="638.65" y="352.63" display="none" fill="#2F9C4F" width="23.19" height="100.79"/>
		<rect x="571.6" y="404.81" display="none" fill="#2F9C4F" width="66.89" height="6.24"/>
		
			<rect x="571.66" y="425.9" transform="matrix(0.9614 -0.2753 0.2753 0.9614 -94.6965 184.0296)" display="none" fill="#2F9C4F" width="73.23" height="6.95"/>
		
			<rect x="571.66" y="382.64" transform="matrix(0.9614 0.2753 -0.2753 0.9614 129.7886 -152.5235)" display="none" fill="#2F9C4F" width="73.23" height="6.95"/>
		<g display="none">
			<rect x="567.14" y="363.78" display="inline" fill="#5CC496" width="8.92" height="87.41"/>
		</g>
		
			<rect x="661.69" y="404.81" transform="matrix(-1 -4.489354e-11 4.489354e-11 -1 1390.2704 815.86)" display="none" fill="#2F9C4F" width="66.89" height="6.24"/>
		
			<rect x="655.3" y="425.9" transform="matrix(-0.9614 -0.2753 0.2753 -0.9614 1238.9032 1032.6329)" display="none" fill="#2F9C4F" width="73.23" height="6.95"/>
		
			<rect x="655.3" y="382.64" transform="matrix(-0.9614 0.2753 -0.2753 -0.9614 1463.3883 566.8538)" display="none" fill="#2F9C4F" width="73.23" height="6.95"/>
		<g display="none">
			<rect x="724.12" y="363.78" display="inline" fill="#5CC496" width="8.92" height="87.41"/>
		</g>
		<rect x="1046.65" y="353.63" fill="#9E3A33" width="23.19" height="100.79"/>
		<rect x="979.6" y="405.81" fill="#9E3A33" width="66.89" height="6.24"/>
		
			<rect x="979.66" y="426.9" transform="matrix(0.9614 -0.2753 0.2753 0.9614 -79.209 296.3801)" fill="#9E3A33" width="73.23" height="6.95"/>
		
			<rect x="979.66" y="383.64" transform="matrix(0.9614 0.2753 -0.2753 0.9614 145.8266 -264.7967)" fill="#9E3A33" width="73.23" height="6.95"/>
		<g>
			<rect x="975.14" y="364.78" fill="#C45949" width="8.92" height="87.41"/>
		</g>
		
			<rect x="1069.69" y="405.81" transform="matrix(-1 -4.489354e-11 4.489354e-11 -1 2206.2703 817.86)" fill="#9E3A33" width="66.89" height="6.24"/>
		
			<rect x="1063.3" y="426.9" transform="matrix(-0.9614 -0.2753 0.2753 -0.9614 2038.8652 1146.9061)" fill="#9E3A33" width="73.23" height="6.95"/>
		
			<rect x="1063.3" y="383.64" transform="matrix(-0.9614 0.2753 -0.2753 -0.9614 2263.9009 456.5033)" fill="#9E3A33" width="73.23" height="6.95"/>
		<g>
			<rect x="1132.12" y="364.78" fill="#C45949" width="8.92" height="87.41"/>
		</g>
	</g>
	<g id="Layer_2">
		<g display="none">
			<path display="inline" fill="#5CC496" d="M650.24,358.87c-27.09,0-49.06,21.96-49.06,49.06s21.96,49.06,49.06,49.06
				c27.09,0,49.06-21.96,49.06-49.06S677.33,358.87,650.24,358.87z M650.24,445.62c-20.81,0-37.69-16.87-37.69-37.69
				s16.87-37.69,37.69-37.69c20.81,0,37.69,16.87,37.69,37.69S671.06,445.62,650.24,445.62z"/>
		</g>
		<g display="none">
			<path display="inline" fill="#5CC496" d="M543.63,261.65c-19.21,0-34.79,15.57-34.79,34.79s15.57,34.79,34.79,34.79
				c19.21,0,34.79-15.57,34.79-34.79S562.85,261.65,543.63,261.65z M543.63,315.17c-10.34,0-18.73-8.39-18.73-18.73
				s8.39-18.73,18.73-18.73c10.34,0,18.73,8.39,18.73,18.73S553.98,315.17,543.63,315.17z"/>
		</g>
		<g display="none">
			<path display="inline" fill="#5CC496" d="M755.91,261.65c-19.21,0-34.79,15.57-34.79,34.79s15.57,34.79,34.79,34.79
				c19.21,0,34.79-15.57,34.79-34.79S775.13,261.65,755.91,261.65z M755.91,315.17c-10.34,0-18.73-8.39-18.73-18.73
				s8.39-18.73,18.73-18.73c10.34,0,18.73,8.39,18.73,18.73S766.26,315.17,755.91,315.17z"/>
		</g>
		<g display="none">
			<path display="inline" fill="#5CC496" d="M755.91,482.85c-19.21,0-34.79,15.57-34.79,34.79c0,19.21,15.57,34.79,34.79,34.79
				c19.21,0,34.79-15.57,34.79-34.79C790.7,498.43,775.13,482.85,755.91,482.85z M755.91,536.37c-10.34,0-18.73-8.39-18.73-18.73
				c0-10.34,8.39-18.73,18.73-18.73c10.34,0,18.73,8.39,18.73,18.73C774.64,527.98,766.26,536.37,755.91,536.37z"/>
		</g>
		<g display="none">
			<path display="inline" fill="#5CC496" d="M539.94,476.74c-19.21,0-34.79,15.57-34.79,34.79s15.57,34.79,34.79,34.79
				c19.21,0,34.79-15.57,34.79-34.79S559.15,476.74,539.94,476.74z M539.94,530.25c-10.34,0-18.73-8.39-18.73-18.73
				c0-10.34,8.39-18.73,18.73-18.73s18.73,8.39,18.73,18.73C558.67,521.87,550.28,530.25,539.94,530.25z"/>
		</g>
		<rect x="628.39" y="424.88" display="none" fill="#5CC496" width="43.7" height="13.82"/>
		<rect x="628.39" y="431.79" display="none" fill="#C2E84A" width="43.7" height="6.91"/>
		<rect x="628.39" y="409.27" display="none" fill="#5CC496" width="43.7" height="13.82"/>
		<rect x="628.39" y="416.18" display="none" fill="#C2E84A" width="43.7" height="6.91"/>
		<rect x="636.68" y="374.93" display="none" fill="#5CC496" width="27.12" height="27.65"/>
		<circle display="none" fill="#C2E84A" cx="650.24" cy="388.75" r="7.58"/>
		
			<rect x="700.91" y="302.68" transform="matrix(0.7071 0.7071 -0.7071 0.7071 453.0555 -402.7831)" display="none" fill="#5CC496" width="23.64" height="85.63"/>
		
			<rect x="578.05" y="300.23" transform="matrix(0.7071 -0.7071 0.7071 0.7071 -69.7995 517.5733)" display="none" fill="#5CC496" width="23.64" height="85.63"/>
		
			<rect x="573.81" y="423.98" transform="matrix(-0.7071 -0.7071 0.7071 -0.7071 669.657 1210.976)" display="none" fill="#5CC496" width="23.64" height="85.63"/>
		
			<rect x="697.57" y="428.22" transform="matrix(-0.7071 0.7071 -0.7071 -0.7071 1544.0677 302.4945)" display="none" fill="#5CC496" width="23.64" height="85.63"/>
		<g>
			<path fill="#C45949" d="M1058.24,359.87c-27.09,0-49.06,21.96-49.06,49.06s21.96,49.06,49.06,49.06s49.06-21.96,49.06-49.06
				S1085.33,359.87,1058.24,359.87z M1058.24,446.62c-20.81,0-37.69-16.87-37.69-37.69s16.87-37.69,37.69-37.69
				s37.69,16.87,37.69,37.69S1079.06,446.62,1058.24,446.62z"/>
		</g>
		<g>
			<path fill="#C45949" d="M951.63,262.65c-19.21,0-34.79,15.57-34.79,34.79s15.57,34.79,34.79,34.79
				c19.21,0,34.79-15.57,34.79-34.79S970.85,262.65,951.63,262.65z M951.63,316.17c-10.34,0-18.73-8.39-18.73-18.73
				s8.39-18.73,18.73-18.73c10.34,0,18.73,8.39,18.73,18.73S961.98,316.17,951.63,316.17z"/>
		</g>
		<g>
			<path fill="#C45949" d="M1163.91,262.65c-19.21,0-34.79,15.57-34.79,34.79s15.57,34.79,34.79,34.79s34.79-15.57,34.79-34.79
				S1183.13,262.65,1163.91,262.65z M1163.91,316.17c-10.34,0-18.73-8.39-18.73-18.73s8.39-18.73,18.73-18.73
				s18.73,8.39,18.73,18.73S1174.26,316.17,1163.91,316.17z"/>
		</g>
		<g>
			<path fill="#C45949" d="M1163.91,483.85c-19.21,0-34.79,15.57-34.79,34.79c0,19.21,15.57,34.79,34.79,34.79
				s34.79-15.57,34.79-34.79C1198.7,499.43,1183.13,483.85,1163.91,483.85z M1163.91,537.37c-10.34,0-18.73-8.39-18.73-18.73
				c0-10.34,8.39-18.73,18.73-18.73s18.73,8.39,18.73,18.73C1182.64,528.98,1174.26,537.37,1163.91,537.37z"/>
		</g>
		<g>
			<path fill="#C45949" d="M947.94,477.74c-19.21,0-34.79,15.57-34.79,34.79c0,19.21,15.57,34.79,34.79,34.79
				c19.21,0,34.79-15.57,34.79-34.79C982.72,493.31,967.15,477.74,947.94,477.74z M947.94,531.25c-10.34,0-18.73-8.39-18.73-18.73
				c0-10.34,8.39-18.73,18.73-18.73s18.73,8.39,18.73,18.73C966.67,522.87,958.28,531.25,947.94,531.25z"/>
		</g>
		<rect x="1036.39" y="425.88" fill="#C45949" width="43.7" height="13.82"/>
		<rect x="1036.39" y="432.79" fill="#FFCB51" width="43.7" height="6.91"/>
		<rect x="1036.39" y="410.27" fill="#C45949" width="43.7" height="13.82"/>
		<rect x="1036.39" y="417.18" fill="#FFCB51" width="43.7" height="6.91"/>
		<rect x="1044.68" y="375.93" fill="#C45949" width="27.12" height="27.65"/>
		<circle fill="#FFCB51" cx="1058.24" cy="389.75" r="7.58"/>
		
			<rect x="1108.91" y="303.68" transform="matrix(0.7071 0.7071 -0.7071 0.7071 573.2631 -690.9897)" fill="#C45949" width="23.64" height="85.63"/>
		
			<rect x="986.05" y="301.23" transform="matrix(0.7071 -0.7071 0.7071 0.7071 48.9939 806.3657)" fill="#C45949" width="23.64" height="85.63"/>
		
			<rect x="981.81" y="424.98" transform="matrix(-0.7071 -0.7071 0.7071 -0.7071 1365.4495 1501.1826)" fill="#C45949" width="23.64" height="85.63"/>
		
			<rect x="1105.57" y="429.22" transform="matrix(-0.7071 0.7071 -0.7071 -0.7071 2241.2744 15.702)" fill="#C45949" width="23.64" height="85.63"/>
	</g>
</g>
<g id="Overlay">
	<rect x="494.04" y="246.84" display="none" opacity="0.28" fill="#5FBB46" width="99.19" height="99.19"/>
	<rect x="705.79" y="246.71" display="none" opacity="0.28" fill="#5FBB46" width="99.19" height="99.19"/>
	<rect x="705.79" y="467.5" display="none" opacity="0.28" fill="#5FBB46" width="99.19" height="99.19"/>
	<rect x="490.43" y="462.75" display="none" opacity="0.28" fill="#5FBB46" width="99.19" height="99.19"/>
	<rect x="902.04" y="247.84" opacity="0.28" fill="#BB7B46" width="99.19" height="99.19"/>
	<rect x="1113.79" y="247.71" opacity="0.28" fill="#BB7B46" width="99.19" height="99.19"/>
	<rect x="1113.79" y="468.5" opacity="0.28" fill="#BB7B46" width="99.19" height="99.19"/>
	<rect x="898.43" y="463.75" opacity="0.28" fill="#BB7B46" width="99.19" height="99.19"/>
	<g display="none">
		<defs>
			<rect id="SVGID_1_" x="386.48" y="141.24" width="184.79" height="199.77"/>
		</defs>
		<clipPath id="SVGID_2_" display="inline">
			<use xlink:href="#SVGID_1_"  overflow="visible"/>
		</clipPath>
		<g display="inline" clip-path="url(#SVGID_2_)">
			<path fill="#F7931E" d="M571.87,146.5c-99.59,0-180.31,80.73-180.31,180.31s80.73,180.31,180.31,180.31
				s180.31-80.73,180.31-180.31S671.46,146.5,571.87,146.5z M571.87,465.34c-76.51,0-138.53-62.02-138.53-138.53
				c0-76.51,62.02-138.53,138.53-138.53S710.4,250.3,710.4,326.81C710.4,403.32,648.38,465.34,571.87,465.34z"/>
		</g>
	</g>
	<g display="none">
		<defs>
			
				<rect id="SVGID_3_" x="393.97" y="476.48" transform="matrix(4.489215e-11 -1 1 4.489215e-11 -89.9966 1062.7327)" width="184.79" height="199.77"/>
		</defs>
		<clipPath id="SVGID_4_" display="inline">
			<use xlink:href="#SVGID_3_"  overflow="visible"/>
		</clipPath>
		<g display="inline" clip-path="url(#SVGID_4_)">
			<path fill="#F7931E" d="M391.74,483.37c0,99.59,80.73,180.31,180.31,180.31c99.58,0,180.31-80.73,180.31-180.31
				s-80.73-180.31-180.31-180.31C472.47,303.05,391.74,383.78,391.74,483.37z M710.58,483.37c0,76.51-62.02,138.53-138.53,138.53
				c-76.51,0-138.53-62.02-138.53-138.53s62.02-138.53,138.53-138.53C648.56,344.84,710.58,406.86,710.58,483.37z"/>
		</g>
	</g>
	<g display="none">
		<defs>
			
				<rect id="SVGID_5_" x="729.21" y="468.99" transform="matrix(-1 -8.979407e-11 8.979407e-11 -1 1643.2119 1137.7465)" width="184.79" height="199.77"/>
		</defs>
		<clipPath id="SVGID_6_" display="inline">
			<use xlink:href="#SVGID_5_"  overflow="visible"/>
		</clipPath>
		<g display="inline" clip-path="url(#SVGID_6_)">
			<path fill="#F7931E" d="M728.61,663.5c99.59,0,180.31-80.73,180.31-180.31c0-99.58-80.73-180.31-180.31-180.31
				S548.29,383.6,548.29,483.19C548.29,582.77,629.02,663.5,728.61,663.5z M728.61,344.66c76.51,0,138.53,62.02,138.53,138.53
				c0,76.51-62.02,138.53-138.53,138.53S590.08,559.7,590.08,483.19C590.08,406.68,652.1,344.66,728.61,344.66z"/>
		</g>
	</g>
	<g display="none">
		<defs>
			
				<rect id="SVGID_7_" x="721.72" y="133.75" transform="matrix(-1.346907e-10 1 -1 -1.346907e-10 1047.7499 -580.4792)" width="184.79" height="199.77"/>
		</defs>
		<clipPath id="SVGID_8_" display="inline">
			<use xlink:href="#SVGID_7_"  overflow="visible"/>
		</clipPath>
		<g display="inline" clip-path="url(#SVGID_8_)">
			<path fill="#F7931E" d="M908.75,326.63c0-99.59-80.73-180.31-180.31-180.31c-99.58,0-180.31,80.73-180.31,180.31
				s80.73,180.31,180.31,180.31C828.02,506.95,908.75,426.22,908.75,326.63z M589.9,326.63c0-76.51,62.02-138.53,138.53-138.53
				c76.51,0,138.53,62.02,138.53,138.53s-62.02,138.53-138.53,138.53C651.92,465.16,589.9,403.14,589.9,326.63z"/>
		</g>
	</g>
	<g display="none">
		<path display="inline" fill="#D69050" d="M2288.62,1134.84v-116.44c-188.03-14.46-338.24-163.92-353.91-351.61h-116.51
			C1834.31,918.69,2036.38,1119.97,2288.62,1134.84z"/>
		<path display="inline" fill="#D69050" d="M1819.53,597.48h116.64c18.02-184.93,166.78-331.53,352.67-346.21V134.81
			C2038.75,149.93,1838.11,348.33,1819.53,597.48z"/>
		<path display="inline" fill="#D69050" d="M2819,666.02h-116.49c-15.04,184.58-160.18,332.34-343.58,351.43v116.69
			C2606.56,1114.41,2803.47,914.8,2819,666.02z"/>
		<path display="inline" fill="#D69050" d="M2358.16,134.4v116.67c181.48,18.52,325.68,163.02,343.74,344.64h116.66
			C2799.85,349.86,2603.87,153.59,2358.16,134.4z"/>
	</g>
</g>
</svg>
