<?xml version="1.0" encoding="utf-8"?>
<!-- Generator: Adobe Illustrator 22.1.0, SVG Export Plug-In . SVG Version: 6.00 Build 0)  -->
<svg version="1.1" id="Layer_1" xmlns="http://www.w3.org/2000/svg" xmlns:xlink="http://www.w3.org/1999/xlink" x="0px" y="0px"
	 viewBox="0 0 1024 768" enable-background="new 0 0 1024 768" xml:space="preserve">
<path fill="#FFFFFF" d="M512,159c30.38,0,59.85,5.95,87.58,17.68c26.79,11.33,50.86,27.56,71.52,48.23
	c20.67,20.67,36.89,44.73,48.23,71.52C731.05,324.15,737,353.62,737,384s-5.95,59.85-17.68,87.58
	c-11.33,26.79-27.56,50.86-48.23,71.52c-20.67,20.67-44.73,36.89-71.52,48.23C571.85,603.05,542.38,609,512,609
	s-59.85-5.95-87.58-17.68c-26.79-11.33-50.86-27.56-71.52-48.23c-20.67-20.67-36.89-44.73-48.23-71.52
	C292.95,443.85,287,414.38,287,384s5.95-59.85,17.68-87.58c11.33-26.79,27.56-50.86,48.23-71.52
	c20.67-20.67,44.73-36.89,71.52-48.23C452.15,164.95,481.62,159,512,159 M512,144c-132.55,0-240,107.45-240,240s107.45,240,240,240
	s240-107.45,240-240S644.55,144,512,144L512,144z"/>
<rect x="272.5" y="379" fill="#FFFFFF" width="479" height="9"/>
<rect x="507.5" y="144" fill="#FFFFFF" width="9" height="479"/>
<g>
	<circle fill="#FFFFFF" cx="397" cy="277" r="28"/>
</g>
<g>
	<circle fill="#FFFFFF" cx="627" cy="249" r="28"/>
</g>
<g>
	<path fill="#FFFFFF" d="M508,306.1c1.33-0.07,2.66-0.1,4-0.1c37.88,0,69.52,27.14,76.54,63h9.17c-7.11-40.9-42.77-72-85.71-72
		c-1.34,0-2.67,0.04-4,0.1V306.1z"/>
	<path fill="#FFFFFF" d="M434.1,388c-0.07-1.33-0.1-2.66-0.1-4c0-38.23,27.65-70.1,64-76.72v-9.16c-41.39,6.7-73,42.59-73,85.87
		c0,1.34,0.04,2.67,0.1,4H434.1z"/>
	<path fill="#FFFFFF" d="M516,461.9c-1.33,0.07-2.66,0.1-4,0.1c-38.23,0-70.1-27.65-76.72-64h-9.16c6.7,41.39,42.59,73,85.87,73
		c1.34,0,2.67-0.04,4-0.1V461.9z"/>
	<path fill="#FFFFFF" d="M589.82,379c0.11,1.66,0.18,3.32,0.18,5c0,38.23-27.65,70.1-64,76.72v9.16c41.39-6.7,73-42.59,73-85.87
		c0-1.68-0.05-3.34-0.15-5H589.82z"/>
</g>
<g>
	<path fill="#FFFFFF" d="M354.05,388c-0.03-1.33-0.05-2.66-0.05-4c0-26.99,6.73-52.95,19.39-75.96c-2.47-1.88-4.7-4.05-6.66-6.45
		C352.9,325.9,345,354.03,345,384c0,1.34,0.02,2.67,0.05,4H354.05z"/>
	<path fill="#FFFFFF" d="M678.33,369c-2.72-30.55-13.66-58.73-30.61-82.32c-2.68,1.47-5.53,2.67-8.51,3.55
		c17.05,23.02,27.41,50.08,30.09,78.77H678.33z"/>
	<path fill="#FFFFFF" d="M516,541.95c-1.33,0.03-2.66,0.05-4,0.05c-42.2,0-81.88-16.43-111.72-46.28
		c-26.52-26.52-42.44-60.8-45.66-97.72h-9.03c7.11,85.68,78.9,153,166.41,153c1.34,0,2.67-0.02,4-0.05V541.95z"/>
	<path fill="#FFFFFF" d="M669.92,379c0.05,1.66,0.08,3.33,0.08,5c0,42.2-16.43,81.88-46.28,111.72
		c-26.52,26.52-60.8,42.44-97.72,45.66v9.03c85.68-7.11,153-78.9,153-166.41c0-1.67-0.03-3.34-0.08-5H669.92z"/>
</g>
<g>
	<path fill="#FFFFFF" d="M498,217.59c-28.94,2.4-55.79,12.18-78.65,27.46c2.55,1.78,4.87,3.86,6.92,6.19
		c21.46-13.92,45.96-22.35,71.74-24.6V217.59z"/>
	<path fill="#FFFFFF" d="M512,217c-1.34,0-2.67,0.02-4,0.05v9.02c1.33-0.03,2.66-0.07,4-0.07c25.6,0,50.26,6.06,72.37,17.47
		c0.4-3.1,1.12-6.1,2.14-8.96C564.08,223.31,538.78,217,512,217z"/>
</g>
</svg>
